<svg width="72" height="72" viewBox="0 0 72 72" fill="none" xmlns="http://www.w3.org/2000/svg">
<path d="M29.4455 35.9997C29.4455 32.3807 32.3802 29.4462 36.0013 29.4462C39.6224 29.4462 42.5587 32.3807 42.5587 35.9997C42.5587 39.6186 39.6224 42.5531 36.0013 42.5531C32.3802 42.5531 29.4455 39.6186 29.4455 35.9997ZM25.9007 35.9997C25.9007 41.5749 30.4227 46.0943 36.0013 46.0943C41.5799 46.0943 46.1019 41.5749 46.1019 35.9997C46.1019 30.4244 41.5799 25.9051 36.0013 25.9051C30.4227 25.9051 25.9007 30.4244 25.9007 35.9997ZM44.1413 25.5048C44.1411 25.9714 44.2794 26.4276 44.5386 26.8156C44.7978 27.2037 45.1664 27.5062 45.5976 27.6849C46.0289 27.8636 46.5035 27.9105 46.9614 27.8197C47.4193 27.7289 47.84 27.5043 48.1703 27.1746C48.5005 26.8448 48.7255 26.4245 48.8167 25.9669C48.908 25.5094 48.8615 25.035 48.683 24.6039C48.5045 24.1727 48.2021 23.8042 47.814 23.5448C47.4259 23.2854 46.9696 23.1469 46.5028 23.1467H46.5018C45.876 23.147 45.2759 23.3955 44.8334 23.8377C44.3908 24.2798 44.1419 24.8794 44.1413 25.5048V25.5048ZM28.0544 52.0015C26.1366 51.9142 25.0942 51.595 24.4014 51.3252C23.4831 50.9679 22.8278 50.5423 22.1388 49.8548C21.4499 49.1672 21.0234 48.5129 20.6675 47.5951C20.3974 46.9031 20.078 45.861 19.9908 43.9444C19.8955 41.8722 19.8764 41.2497 19.8764 35.9998C19.8764 30.75 19.897 30.1292 19.9908 28.0553C20.0782 26.1386 20.4 25.0986 20.6675 24.4046C21.025 23.4867 21.4508 22.8319 22.1388 22.1433C22.8268 21.4548 23.4815 21.0286 24.4014 20.6728C25.0939 20.403 26.1366 20.0837 28.0544 19.9966C30.1278 19.9013 30.7507 19.8822 36.0013 19.8822C41.2519 19.8822 41.8754 19.9028 43.9506 19.9966C45.8684 20.0839 46.9091 20.4055 47.6035 20.6728C48.5219 21.0286 49.1772 21.4557 49.8661 22.1433C50.5551 22.8309 50.98 23.4867 51.3375 24.4046C51.6075 25.0966 51.927 26.1386 52.0142 28.0553C52.1095 30.1292 52.1286 30.75 52.1286 35.9998C52.1286 41.2497 52.1095 41.8704 52.0142 43.9444C51.9268 45.861 51.6058 46.9028 51.3375 47.5951C50.98 48.5129 50.5541 49.1678 49.8661 49.8548C49.1781 50.5417 48.5219 50.9679 47.6035 51.3252C46.9111 51.5951 45.8684 51.9144 43.9506 52.0015C41.8772 52.0968 41.2543 52.1158 36.0013 52.1158C30.7483 52.1158 30.1272 52.0968 28.0544 52.0015V52.0015ZM27.8915 16.4599C25.7974 16.5552 24.3665 16.887 23.1169 17.373C21.8227 17.8748 20.7271 18.5481 19.6323 19.6405C18.5375 20.7329 17.8656 21.8296 17.3634 23.123C16.8772 24.3726 16.5451 25.8019 16.4498 27.8947C16.3528 29.9908 16.3307 30.661 16.3307 35.9997C16.3307 41.3384 16.3528 42.0085 16.4498 44.1046C16.5451 46.1976 16.8772 47.6267 17.3634 48.8764C17.8656 50.169 18.5377 51.2669 19.6323 52.3588C20.727 53.4508 21.8227 54.1231 23.1169 54.6264C24.3689 55.1123 25.7974 55.4442 27.8915 55.5395C29.99 55.6348 30.6594 55.6585 36.0013 55.6585C41.3432 55.6585 42.0138 55.6363 44.1111 55.5395C46.2053 55.4442 47.6353 55.1123 48.8857 54.6264C50.1791 54.1231 51.2755 53.4512 52.3703 52.3588C53.4651 51.2664 54.1356 50.169 54.6392 48.8764C55.1254 47.6267 55.459 46.1974 55.5528 44.1046C55.6482 42.0069 55.6704 41.3384 55.6704 35.9997C55.6704 30.661 55.6482 29.9908 55.5528 27.8947C55.4575 25.8018 55.1254 24.3719 54.6392 23.123C54.1356 21.8304 53.4633 20.7347 52.3703 19.6405C51.2772 18.5464 50.1791 17.8748 48.8873 17.373C47.6353 16.887 46.2052 16.5536 44.1127 16.4599C42.0153 16.3646 41.3448 16.3408 36.0029 16.3408C30.661 16.3408 29.99 16.363 27.8915 16.4599Z" fill="url(#paint0_radial_3_170)"/>
<path d="M29.4455 35.9997C29.4455 32.3807 32.3802 29.4462 36.0013 29.4462C39.6224 29.4462 42.5587 32.3807 42.5587 35.9997C42.5587 39.6186 39.6224 42.5531 36.0013 42.5531C32.3802 42.5531 29.4455 39.6186 29.4455 35.9997ZM25.9007 35.9997C25.9007 41.5749 30.4227 46.0943 36.0013 46.0943C41.5799 46.0943 46.1019 41.5749 46.1019 35.9997C46.1019 30.4244 41.5799 25.9051 36.0013 25.9051C30.4227 25.9051 25.9007 30.4244 25.9007 35.9997ZM44.1413 25.5048C44.1411 25.9714 44.2794 26.4276 44.5386 26.8156C44.7978 27.2037 45.1664 27.5062 45.5976 27.6849C46.0289 27.8636 46.5035 27.9105 46.9614 27.8197C47.4193 27.7289 47.84 27.5043 48.1703 27.1746C48.5005 26.8448 48.7255 26.4245 48.8167 25.9669C48.908 25.5094 48.8615 25.035 48.683 24.6039C48.5045 24.1727 48.2021 23.8042 47.814 23.5448C47.4259 23.2854 46.9696 23.1469 46.5028 23.1467H46.5018C45.876 23.147 45.2759 23.3955 44.8334 23.8377C44.3908 24.2798 44.1419 24.8794 44.1413 25.5048V25.5048ZM28.0544 52.0015C26.1366 51.9142 25.0942 51.595 24.4014 51.3252C23.4831 50.9679 22.8278 50.5423 22.1388 49.8548C21.4499 49.1672 21.0234 48.5129 20.6675 47.5951C20.3974 46.9031 20.078 45.861 19.9908 43.9444C19.8955 41.8722 19.8764 41.2497 19.8764 35.9998C19.8764 30.75 19.897 30.1292 19.9908 28.0553C20.0782 26.1386 20.4 25.0986 20.6675 24.4046C21.025 23.4867 21.4508 22.8319 22.1388 22.1433C22.8268 21.4548 23.4815 21.0286 24.4014 20.6728C25.0939 20.403 26.1366 20.0837 28.0544 19.9966C30.1278 19.9013 30.7507 19.8822 36.0013 19.8822C41.2519 19.8822 41.8754 19.9028 43.9506 19.9966C45.8684 20.0839 46.9091 20.4055 47.6035 20.6728C48.5219 21.0286 49.1772 21.4557 49.8661 22.1433C50.5551 22.8309 50.98 23.4867 51.3375 24.4046C51.6075 25.0966 51.927 26.1386 52.0142 28.0553C52.1095 30.1292 52.1286 30.75 52.1286 35.9998C52.1286 41.2497 52.1095 41.8704 52.0142 43.9444C51.9268 45.861 51.6058 46.9028 51.3375 47.5951C50.98 48.5129 50.5541 49.1678 49.8661 49.8548C49.1781 50.5417 48.5219 50.9679 47.6035 51.3252C46.9111 51.5951 45.8684 51.9144 43.9506 52.0015C41.8772 52.0968 41.2543 52.1158 36.0013 52.1158C30.7483 52.1158 30.1272 52.0968 28.0544 52.0015V52.0015ZM27.8915 16.4599C25.7974 16.5552 24.3665 16.887 23.1169 17.373C21.8227 17.8748 20.7271 18.5481 19.6323 19.6405C18.5375 20.7329 17.8656 21.8296 17.3634 23.123C16.8772 24.3726 16.5451 25.8019 16.4498 27.8947C16.3528 29.9908 16.3307 30.661 16.3307 35.9997C16.3307 41.3384 16.3528 42.0085 16.4498 44.1046C16.5451 46.1976 16.8772 47.6267 17.3634 48.8764C17.8656 50.169 18.5377 51.2669 19.6323 52.3588C20.727 53.4508 21.8227 54.1231 23.1169 54.6264C24.3689 55.1123 25.7974 55.4442 27.8915 55.5395C29.99 55.6348 30.6594 55.6585 36.0013 55.6585C41.3432 55.6585 42.0138 55.6363 44.1111 55.5395C46.2053 55.4442 47.6353 55.1123 48.8857 54.6264C50.1791 54.1231 51.2755 53.4512 52.3703 52.3588C53.4651 51.2664 54.1356 50.169 54.6392 48.8764C55.1254 47.6267 55.459 46.1974 55.5528 44.1046C55.6482 42.0069 55.6704 41.3384 55.6704 35.9997C55.6704 30.661 55.6482 29.9908 55.5528 27.8947C55.4575 25.8018 55.1254 24.3719 54.6392 23.123C54.1356 21.8304 53.4633 20.7347 52.3703 19.6405C51.2772 18.5464 50.1791 17.8748 48.8873 17.373C47.6353 16.887 46.2052 16.5536 44.1127 16.4599C42.0153 16.3646 41.3448 16.3408 36.0029 16.3408C30.661 16.3408 29.99 16.363 27.8915 16.4599Z" fill="url(#paint1_radial_3_170)"/>
<defs>
<radialGradient id="paint0_radial_3_170" cx="0" cy="0" r="1" gradientUnits="userSpaceOnUse" gradientTransform="translate(21.5574 55.8443) scale(51.3568 51.326)">
<stop offset="0.09" stop-color="#FA8F21"/>
<stop offset="0.78" stop-color="#D82D7E"/>
</radialGradient>
<radialGradient id="paint1_radial_3_170" cx="0" cy="0" r="1" gradientUnits="userSpaceOnUse" gradientTransform="translate(40.1894 57.6057) scale(40.4762 40.4519)">
<stop offset="0.64" stop-color="#8C3AAA" stop-opacity="0"/>
<stop offset="1" stop-color="#8C3AAA"/>
</radialGradient>
</defs>
</svg>
