<svg width="72" height="72" viewBox="0 0 72 72" fill="none" xmlns="http://www.w3.org/2000/svg">
<path d="M19 21.4355C19 20.0912 20.1255 19 21.5128 19H50.4872C51.8751 19 53 20.0912 53 21.4355V50.5649C53 51.9096 51.8751 53 50.4872 53H21.5128C20.1256 53 19 51.9097 19 50.5653V21.4351V21.4355Z" fill="#006699"/>
<path d="M29.3319 47.4538V32.1469H24.2441V47.4538H29.3324H29.3319ZM26.7891 30.0573C28.5629 30.0573 29.6672 28.8819 29.6672 27.413C29.634 25.9107 28.5629 24.7681 26.8228 24.7681C25.0815 24.7681 23.9442 25.9107 23.9442 27.4129C23.9442 28.8818 25.0482 30.0572 26.7557 30.0572H26.7887L26.7891 30.0573ZM32.148 47.4538H37.2354V38.9066C37.2354 38.4497 37.2686 37.9917 37.403 37.6654C37.7707 36.7509 38.6078 35.8044 40.0136 35.8044C41.8541 35.8044 42.5908 37.208 42.5908 39.2659V47.4538H47.6781V38.6773C47.6781 33.9758 45.1684 31.788 41.8212 31.788C39.0769 31.788 37.8716 33.3219 37.202 34.3666H37.2358V32.1474H32.1483C32.2147 33.5834 32.1479 47.4543 32.1479 47.4543L32.148 47.4538Z" fill="white"/>
</svg>
