<svg width="381" height="53" viewBox="0 0 381 53" fill="none" xmlns="http://www.w3.org/2000/svg">
<g style="mix-blend-mode:darken">
<path d="M9.04 5.304V25.464C9.04 27.48 9.536 29.032 10.528 30.12C11.52 31.208 12.976 31.752 14.896 31.752C16.816 31.752 18.288 31.208 19.312 30.12C20.336 29.032 20.848 27.48 20.848 25.464V5.304H29.056V25.416C29.056 28.424 28.416 30.968 27.136 33.048C25.856 35.128 24.128 36.696 21.952 37.752C19.808 38.808 17.408 39.336 14.752 39.336C12.096 39.336 9.712 38.824 7.6 37.8C5.52 36.744 3.872 35.176 2.656 33.096C1.44 30.984 0.832 28.424 0.832 25.416V5.304H9.04ZM67.9397 11.928C71.0757 11.928 73.5717 12.952 75.4278 15C77.3158 17.016 78.2598 19.8 78.2598 23.352V39H70.0998V24.456C70.0998 22.664 69.6358 21.272 68.7077 20.28C67.7798 19.288 66.5318 18.792 64.9637 18.792C63.3957 18.792 62.1477 19.288 61.2198 20.28C60.2917 21.272 59.8277 22.664 59.8277 24.456V39H51.6197V12.216H59.8277V15.768C60.6597 14.584 61.7797 13.656 63.1877 12.984C64.5957 12.28 66.1797 11.928 67.9397 11.928ZM104.891 9.432C103.451 9.432 102.267 9.016 101.339 8.184C100.443 7.32 99.9955 6.264 99.9955 5.016C99.9955 3.736 100.443 2.68 101.339 1.848C102.267 0.983997 103.451 0.551997 104.891 0.551997C106.299 0.551997 107.451 0.983997 108.347 1.848C109.275 2.68 109.739 3.736 109.739 5.016C109.739 6.264 109.275 7.32 108.347 8.184C107.451 9.016 106.299 9.432 104.891 9.432ZM108.971 12.216V39H100.763V12.216H108.971ZM144.344 5.304C147.896 5.304 151 6.008 153.656 7.416C156.312 8.824 158.36 10.808 159.8 13.368C161.272 15.896 162.008 18.824 162.008 22.152C162.008 25.448 161.272 28.376 159.8 30.936C158.36 33.496 156.296 35.48 153.608 36.888C150.952 38.296 147.864 39 144.344 39H131.72V5.304H144.344ZM143.816 31.896C146.92 31.896 149.336 31.048 151.064 29.352C152.792 27.656 153.656 25.256 153.656 22.152C153.656 19.048 152.792 16.632 151.064 14.904C149.336 13.176 146.92 12.312 143.816 12.312H139.928V31.896H143.816ZM208.643 25.176C208.643 25.944 208.595 26.744 208.499 27.576H189.923C190.051 29.24 190.579 30.52 191.507 31.416C192.467 32.28 193.635 32.712 195.011 32.712C197.059 32.712 198.483 31.848 199.283 30.12H208.019C207.571 31.88 206.755 33.464 205.571 34.872C204.419 36.28 202.963 37.384 201.203 38.184C199.443 38.984 197.475 39.384 195.299 39.384C192.675 39.384 190.339 38.824 188.291 37.704C186.243 36.584 184.643 34.984 183.491 32.904C182.339 30.824 181.763 28.392 181.763 25.608C181.763 22.824 182.323 20.392 183.443 18.312C184.595 16.232 186.195 14.632 188.243 13.512C190.291 12.392 192.643 11.832 195.299 11.832C197.891 11.832 200.195 12.376 202.211 13.464C204.227 14.552 205.795 16.104 206.915 18.12C208.067 20.136 208.643 22.488 208.643 25.176ZM200.243 23.016C200.243 21.608 199.763 20.488 198.803 19.656C197.843 18.824 196.643 18.408 195.203 18.408C193.827 18.408 192.659 18.808 191.699 19.608C190.771 20.408 190.195 21.544 189.971 23.016H200.243ZM240.669 39.384C238.333 39.384 236.253 38.984 234.429 38.184C232.605 37.384 231.165 36.296 230.109 34.92C229.053 33.512 228.461 31.944 228.333 30.216H236.445C236.541 31.144 236.973 31.896 237.741 32.472C238.509 33.048 239.453 33.336 240.573 33.336C241.597 33.336 242.381 33.144 242.925 32.76C243.501 32.344 243.789 31.816 243.789 31.176C243.789 30.408 243.389 29.848 242.589 29.496C241.789 29.112 240.493 28.696 238.701 28.248C236.781 27.8 235.181 27.336 233.901 26.856C232.621 26.344 231.517 25.56 230.589 24.504C229.661 23.416 229.197 21.96 229.197 20.136C229.197 18.6 229.613 17.208 230.445 15.96C231.309 14.68 232.557 13.672 234.189 12.936C235.853 12.2 237.821 11.832 240.093 11.832C243.453 11.832 246.093 12.664 248.013 14.328C249.965 15.992 251.085 18.2 251.373 20.952H243.789C243.661 20.024 243.245 19.288 242.541 18.744C241.869 18.2 240.973 17.928 239.853 17.928C238.893 17.928 238.157 18.12 237.645 18.504C237.133 18.856 236.877 19.352 236.877 19.992C236.877 20.76 237.277 21.336 238.077 21.72C238.909 22.104 240.189 22.488 241.917 22.872C243.901 23.384 245.517 23.896 246.765 24.408C248.013 24.888 249.101 25.688 250.029 26.808C250.989 27.896 251.485 29.368 251.517 31.224C251.517 32.792 251.069 34.2 250.173 35.448C249.309 36.664 248.045 37.624 246.381 38.328C244.749 39.032 242.845 39.384 240.669 39.384ZM277.466 9.432C276.026 9.432 274.842 9.016 273.914 8.184C273.018 7.32 272.57 6.264 272.57 5.016C272.57 3.736 273.018 2.68 273.914 1.848C274.842 0.983997 276.026 0.551997 277.466 0.551997C278.874 0.551997 280.026 0.983997 280.922 1.848C281.85 2.68 282.314 3.736 282.314 5.016C282.314 6.264 281.85 7.32 280.922 8.184C280.026 9.016 278.874 9.432 277.466 9.432ZM281.546 12.216V39H273.338V12.216H281.546ZM314.471 11.832C316.359 11.832 318.007 12.216 319.415 12.984C320.855 13.752 321.959 14.76 322.727 16.008V12.216H330.935V38.952C330.935 41.416 330.439 43.64 329.447 45.624C328.487 47.64 326.999 49.24 324.983 50.424C322.999 51.608 320.519 52.2 317.543 52.2C313.575 52.2 310.359 51.256 307.895 49.368C305.431 47.512 304.023 44.984 303.671 41.784H311.783C312.039 42.808 312.647 43.608 313.607 44.184C314.567 44.792 315.751 45.096 317.159 45.096C318.855 45.096 320.199 44.6 321.191 43.608C322.215 42.648 322.727 41.096 322.727 38.952V35.16C321.927 36.408 320.823 37.432 319.415 38.232C318.007 39 316.359 39.384 314.471 39.384C312.263 39.384 310.263 38.824 308.471 37.704C306.679 36.552 305.255 34.936 304.199 32.856C303.175 30.744 302.663 28.312 302.663 25.56C302.663 22.808 303.175 20.392 304.199 18.312C305.255 16.232 306.679 14.632 308.471 13.512C310.263 12.392 312.263 11.832 314.471 11.832ZM322.727 25.608C322.727 23.56 322.151 21.944 320.999 20.76C319.879 19.576 318.503 18.984 316.871 18.984C315.239 18.984 313.847 19.576 312.695 20.76C311.575 21.912 311.015 23.512 311.015 25.56C311.015 27.608 311.575 29.24 312.695 30.456C313.847 31.64 315.239 32.232 316.871 32.232C318.503 32.232 319.879 31.64 320.999 30.456C322.151 29.272 322.727 27.656 322.727 25.608ZM369.993 11.928C373.129 11.928 375.625 12.952 377.481 15C379.369 17.016 380.313 19.8 380.313 23.352V39H372.153V24.456C372.153 22.664 371.689 21.272 370.761 20.28C369.833 19.288 368.585 18.792 367.017 18.792C365.449 18.792 364.201 19.288 363.273 20.28C362.345 21.272 361.881 22.664 361.881 24.456V39H353.673V12.216H361.881V15.768C362.713 14.584 363.833 13.656 365.241 12.984C366.649 12.28 368.233 11.928 369.993 11.928Z" fill="#0E0578"/>
</g>
</svg>
