<svg width="246" height="53" viewBox="0 0 246 53" fill="none" xmlns="http://www.w3.org/2000/svg">
<g style="mix-blend-mode:darken">
<path d="M9.04 5.304V25.464C9.04 27.48 9.536 29.032 10.528 30.12C11.52 31.208 12.976 31.752 14.896 31.752C16.816 31.752 18.288 31.208 19.312 30.12C20.336 29.032 20.848 27.48 20.848 25.464V5.304H29.056V25.416C29.056 28.424 28.416 30.968 27.136 33.048C25.856 35.128 24.128 36.696 21.952 37.752C19.808 38.808 17.408 39.336 14.752 39.336C12.096 39.336 9.712 38.824 7.6 37.8C5.52 36.744 3.872 35.176 2.656 33.096C1.44 30.984 0.832 28.424 0.832 25.416V5.304H9.04ZM51.1398 11.928C54.2758 11.928 56.7718 12.952 58.6278 15C60.5158 17.016 61.4598 19.8 61.4598 23.352V39H53.2998V24.456C53.2998 22.664 52.8358 21.272 51.9078 20.28C50.9798 19.288 49.7318 18.792 48.1638 18.792C46.5958 18.792 45.3478 19.288 44.4198 20.28C43.4918 21.272 43.0278 22.664 43.0278 24.456V39H34.8198V12.216H43.0278V15.768C43.8598 14.584 44.9798 13.656 46.3878 12.984C47.7958 12.28 49.3798 11.928 51.1398 11.928ZM71.2915 9.432C69.8515 9.432 68.6675 9.016 67.7395 8.184C66.8435 7.32 66.3955 6.264 66.3955 5.016C66.3955 3.736 66.8435 2.68 67.7395 1.848C68.6675 0.983997 69.8515 0.551997 71.2915 0.551997C72.6995 0.551997 73.8515 0.983997 74.7475 1.848C75.6755 2.68 76.1395 3.736 76.1395 5.016C76.1395 6.264 75.6755 7.32 74.7475 8.184C73.8515 9.016 72.6995 9.432 71.2915 9.432ZM75.3715 12.216V39H67.1635V12.216H75.3715ZM93.9438 5.304C97.4958 5.304 100.6 6.008 103.256 7.416C105.912 8.824 107.96 10.808 109.4 13.368C110.872 15.896 111.608 18.824 111.608 22.152C111.608 25.448 110.872 28.376 109.4 30.936C107.96 33.496 105.896 35.48 103.208 36.888C100.552 38.296 97.4638 39 93.9438 39H81.3198V5.304H93.9438ZM93.4158 31.896C96.5198 31.896 98.9358 31.048 100.664 29.352C102.392 27.656 103.256 25.256 103.256 22.152C103.256 19.048 102.392 16.632 100.664 14.904C98.9358 13.176 96.5198 12.312 93.4158 12.312H89.5278V31.896H93.4158ZM141.443 25.176C141.443 25.944 141.395 26.744 141.299 27.576H122.723C122.851 29.24 123.379 30.52 124.307 31.416C125.267 32.28 126.435 32.712 127.811 32.712C129.859 32.712 131.283 31.848 132.083 30.12H140.819C140.371 31.88 139.555 33.464 138.371 34.872C137.219 36.28 135.763 37.384 134.003 38.184C132.243 38.984 130.275 39.384 128.099 39.384C125.475 39.384 123.139 38.824 121.091 37.704C119.043 36.584 117.443 34.984 116.291 32.904C115.139 30.824 114.563 28.392 114.563 25.608C114.563 22.824 115.123 20.392 116.243 18.312C117.395 16.232 118.995 14.632 121.043 13.512C123.091 12.392 125.443 11.832 128.099 11.832C130.691 11.832 132.995 12.376 135.011 13.464C137.027 14.552 138.595 16.104 139.715 18.12C140.867 20.136 141.443 22.488 141.443 25.176ZM133.043 23.016C133.043 21.608 132.563 20.488 131.603 19.656C130.643 18.824 129.443 18.408 128.003 18.408C126.627 18.408 125.459 18.808 124.499 19.608C123.571 20.408 122.995 21.544 122.771 23.016H133.043ZM156.669 39.384C154.333 39.384 152.253 38.984 150.429 38.184C148.605 37.384 147.165 36.296 146.109 34.92C145.053 33.512 144.461 31.944 144.333 30.216H152.445C152.541 31.144 152.973 31.896 153.741 32.472C154.509 33.048 155.453 33.336 156.573 33.336C157.597 33.336 158.381 33.144 158.925 32.76C159.501 32.344 159.789 31.816 159.789 31.176C159.789 30.408 159.389 29.848 158.589 29.496C157.789 29.112 156.493 28.696 154.701 28.248C152.781 27.8 151.181 27.336 149.901 26.856C148.621 26.344 147.517 25.56 146.589 24.504C145.661 23.416 145.197 21.96 145.197 20.136C145.197 18.6 145.613 17.208 146.445 15.96C147.309 14.68 148.557 13.672 150.189 12.936C151.853 12.2 153.821 11.832 156.093 11.832C159.453 11.832 162.093 12.664 164.013 14.328C165.965 15.992 167.085 18.2 167.373 20.952H159.789C159.661 20.024 159.245 19.288 158.541 18.744C157.869 18.2 156.973 17.928 155.853 17.928C154.893 17.928 154.157 18.12 153.645 18.504C153.133 18.856 152.877 19.352 152.877 19.992C152.877 20.76 153.277 21.336 154.077 21.72C154.909 22.104 156.189 22.488 157.917 22.872C159.901 23.384 161.517 23.896 162.765 24.408C164.013 24.888 165.101 25.688 166.029 26.808C166.989 27.896 167.485 29.368 167.517 31.224C167.517 32.792 167.069 34.2 166.173 35.448C165.309 36.664 164.045 37.624 162.381 38.328C160.749 39.032 158.845 39.384 156.669 39.384ZM176.667 9.432C175.227 9.432 174.043 9.016 173.115 8.184C172.219 7.32 171.771 6.264 171.771 5.016C171.771 3.736 172.219 2.68 173.115 1.848C174.043 0.983997 175.227 0.551997 176.667 0.551997C178.075 0.551997 179.227 0.983997 180.123 1.848C181.051 2.68 181.515 3.736 181.515 5.016C181.515 6.264 181.051 7.32 180.123 8.184C179.227 9.016 178.075 9.432 176.667 9.432ZM180.747 12.216V39H172.539V12.216H180.747ZM196.871 11.832C198.759 11.832 200.407 12.216 201.815 12.984C203.255 13.752 204.359 14.76 205.127 16.008V12.216H213.335V38.952C213.335 41.416 212.839 43.64 211.847 45.624C210.887 47.64 209.399 49.24 207.383 50.424C205.399 51.608 202.919 52.2 199.943 52.2C195.975 52.2 192.759 51.256 190.295 49.368C187.831 47.512 186.423 44.984 186.071 41.784H194.183C194.439 42.808 195.047 43.608 196.007 44.184C196.967 44.792 198.151 45.096 199.559 45.096C201.255 45.096 202.599 44.6 203.591 43.608C204.615 42.648 205.127 41.096 205.127 38.952V35.16C204.327 36.408 203.223 37.432 201.815 38.232C200.407 39 198.759 39.384 196.871 39.384C194.663 39.384 192.663 38.824 190.871 37.704C189.079 36.552 187.655 34.936 186.599 32.856C185.575 30.744 185.063 28.312 185.063 25.56C185.063 22.808 185.575 20.392 186.599 18.312C187.655 16.232 189.079 14.632 190.871 13.512C192.663 12.392 194.663 11.832 196.871 11.832ZM205.127 25.608C205.127 23.56 204.551 21.944 203.399 20.76C202.279 19.576 200.903 18.984 199.271 18.984C197.639 18.984 196.247 19.576 195.095 20.76C193.975 21.912 193.415 23.512 193.415 25.56C193.415 27.608 193.975 29.24 195.095 30.456C196.247 31.64 197.639 32.232 199.271 32.232C200.903 32.232 202.279 31.64 203.399 30.456C204.551 29.272 205.127 27.656 205.127 25.608ZM235.593 11.928C238.729 11.928 241.225 12.952 243.081 15C244.969 17.016 245.913 19.8 245.913 23.352V39H237.753V24.456C237.753 22.664 237.289 21.272 236.361 20.28C235.433 19.288 234.185 18.792 232.617 18.792C231.049 18.792 229.801 19.288 228.873 20.28C227.945 21.272 227.481 22.664 227.481 24.456V39H219.273V12.216H227.481V15.768C228.313 14.584 229.433 13.656 230.841 12.984C232.249 12.28 233.833 11.928 235.593 11.928Z" fill="#0E0578"/>
</g>
</svg>
