<svg width="72" height="72" viewBox="0 0 72 72" fill="none" xmlns="http://www.w3.org/2000/svg">
<path d="M55.1847 26.4967C54.7147 24.7295 53.324 23.3353 51.5547 22.8575C48.3556 22 35.52 22 35.52 22C35.52 22 22.6909 22 19.4853 22.8575C17.7225 23.3287 16.3319 24.7229 15.8553 26.4967C15 29.704 15 36.4 15 36.4C15 36.4 15 43.096 15.8553 46.3033C16.3253 48.0705 17.716 49.4647 19.4853 49.9425C22.6909 50.8 35.52 50.8 35.52 50.8C35.52 50.8 48.3556 50.8 51.5547 49.9425C53.3175 49.4713 54.7081 48.0771 55.1847 46.3033C56.04 43.096 56.04 36.4 56.04 36.4C56.04 36.4 56.04 29.704 55.1847 26.4967Z" fill="#FF3000"/>
<path d="M31.4199 42.5724L42.0814 36.4L31.4199 30.2276V42.5724Z" fill="white"/>
</svg>
